<svg width="832" height="832" viewBox="0 0 832 832" fill="none" xmlns="http://www.w3.org/2000/svg">
<circle cx="32" cy="32" r="32" fill="#E0E0E0"/>
<circle cx="32" cy="416" r="32" fill="#E0E0E0"/>
<circle cx="32" cy="224" r="32" fill="#E0E0E0"/>
<circle cx="32" cy="608" r="32" fill="#E0E0E0"/>
<circle cx="32" cy="128" r="32" fill="#E0E0E0"/>
<circle cx="32" cy="512" r="32" fill="#E0E0E0"/>
<circle cx="32" cy="320" r="32" fill="#E0E0E0"/>
<circle cx="32" cy="704" r="32" fill="#E0E0E0"/>
<circle cx="32" cy="800" r="32" fill="#E0E0E0"/>
<circle cx="320" cy="32" r="32" fill="#E0E0E0"/>
<circle cx="320" cy="416" r="32" fill="#E0E0E0"/>
<circle cx="320" cy="224" r="32" fill="#E0E0E0"/>
<circle cx="320" cy="608" r="32" fill="#E0E0E0"/>
<circle cx="320" cy="128" r="32" fill="#E0E0E0"/>
<circle cx="320" cy="512" r="32" fill="#E0E0E0"/>
<circle cx="320" cy="320" r="32" fill="#E0E0E0"/>
<circle cx="320" cy="704" r="32" fill="#E0E0E0"/>
<circle cx="320" cy="800" r="32" fill="#E0E0E0"/>
<circle cx="608" cy="32" r="32" fill="#E0E0E0"/>
<circle cx="608" cy="416" r="32" fill="#E0E0E0"/>
<circle cx="608" cy="224" r="32" fill="#E0E0E0"/>
<circle cx="608" cy="608" r="32" fill="#E0E0E0"/>
<circle cx="608" cy="128" r="32" fill="#E0E0E0"/>
<circle cx="608" cy="512" r="32" fill="#E0E0E0"/>
<circle cx="608" cy="320" r="32" fill="#E0E0E0"/>
<circle cx="608" cy="704" r="32" fill="#E0E0E0"/>
<circle cx="608" cy="800" r="32" fill="#E0E0E0"/>
<circle cx="128" cy="32" r="32" fill="#E0E0E0"/>
<circle cx="128" cy="416" r="32" fill="#E0E0E0"/>
<circle cx="128" cy="224" r="32" fill="#E0E0E0"/>
<circle cx="128" cy="608" r="32" fill="#E0E0E0"/>
<circle cx="128" cy="128" r="32" fill="#E0E0E0"/>
<circle cx="128" cy="512" r="32" fill="#E0E0E0"/>
<circle cx="128" cy="320" r="32" fill="#E0E0E0"/>
<circle cx="128" cy="704" r="32" fill="#E0E0E0"/>
<circle cx="128" cy="800" r="32" fill="#E0E0E0"/>
<circle cx="416" cy="32" r="32" fill="#E0E0E0"/>
<circle cx="416" cy="416" r="32" fill="#E0E0E0"/>
<circle cx="416" cy="224" r="32" fill="#E0E0E0"/>
<circle cx="416" cy="608" r="32" fill="#E0E0E0"/>
<circle cx="416" cy="128" r="32" fill="#E0E0E0"/>
<circle cx="416" cy="512" r="32" fill="#E0E0E0"/>
<circle cx="416" cy="320" r="32" fill="#E0E0E0"/>
<circle cx="416" cy="704" r="32" fill="#E0E0E0"/>
<circle cx="416" cy="800" r="32" fill="#E0E0E0"/>
<circle cx="704" cy="32" r="32" fill="#E0E0E0"/>
<circle cx="704" cy="416" r="32" fill="#E0E0E0"/>
<circle cx="704" cy="224" r="32" fill="#E0E0E0"/>
<circle cx="704" cy="608" r="32" fill="#E0E0E0"/>
<circle cx="704" cy="128" r="32" fill="#E0E0E0"/>
<circle cx="704" cy="512" r="32" fill="#E0E0E0"/>
<circle cx="704" cy="320" r="32" fill="#E0E0E0"/>
<circle cx="704" cy="704" r="32" fill="#E0E0E0"/>
<circle cx="704" cy="800" r="32" fill="#E0E0E0"/>
<circle cx="224" cy="32" r="32" fill="#E0E0E0"/>
<circle cx="224" cy="416" r="32" fill="#E0E0E0"/>
<circle cx="224" cy="224" r="32" fill="#E0E0E0"/>
<circle cx="224" cy="608" r="32" fill="#E0E0E0"/>
<circle cx="224" cy="128" r="32" fill="#E0E0E0"/>
<circle cx="224" cy="512" r="32" fill="#E0E0E0"/>
<circle cx="224" cy="320" r="32" fill="#E0E0E0"/>
<circle cx="224" cy="704" r="32" fill="#E0E0E0"/>
<circle cx="224" cy="800" r="32" fill="#E0E0E0"/>
<circle cx="512" cy="32" r="32" fill="#E0E0E0"/>
<circle cx="512" cy="416" r="32" fill="#E0E0E0"/>
<circle cx="512" cy="224" r="32" fill="#E0E0E0"/>
<circle cx="512" cy="608" r="32" fill="#E0E0E0"/>
<circle cx="512" cy="128" r="32" fill="#E0E0E0"/>
<circle cx="512" cy="512" r="32" fill="#E0E0E0"/>
<circle cx="512" cy="320" r="32" fill="#E0E0E0"/>
<circle cx="512" cy="704" r="32" fill="#E0E0E0"/>
<circle cx="512" cy="800" r="32" fill="#E0E0E0"/>
<circle cx="800" cy="32" r="32" fill="#E0E0E0"/>
<circle cx="800" cy="416" r="32" fill="#E0E0E0"/>
<circle cx="800" cy="224" r="32" fill="#E0E0E0"/>
<circle cx="800" cy="608" r="32" fill="#E0E0E0"/>
<circle cx="800" cy="128" r="32" fill="#E0E0E0"/>
<circle cx="800" cy="512" r="32" fill="#E0E0E0"/>
<circle cx="800" cy="320" r="32" fill="#E0E0E0"/>
<circle cx="800" cy="704" r="32" fill="#E0E0E0"/>
<circle cx="800" cy="800" r="32" fill="#E0E0E0"/>
</svg>
