<svg width="250" height="38" viewBox="0 0 250 38" fill="none" xmlns="http://www.w3.org/2000/svg">
<path d="M27.172 37H19.318L6.67 9.256V36.949H0.55V1.3H8.965L21.052 28.483V1.3H27.172V37ZM51.5026 37H32.2756V1.3H51.5026V7.012H38.3956V16.957H49.0036V22.108H38.3956V31.288H51.5026V37ZM106.329 1.3L95.2622 37H88.5812L80.7272 15.835L72.9752 37H66.2942L55.0742 1.3H61.9592L69.8642 27.922L77.6162 6.961H83.8892L91.6412 27.922L99.4442 1.3H106.329ZM120.758 37.51C119.228 37.51 117.681 37.272 116.117 36.796C114.587 36.32 113.142 35.674 111.782 34.858C110.456 34.008 109.317 33.073 108.365 32.053L112.904 27.667C113.924 28.721 115.148 29.571 116.576 30.217C118.038 30.863 119.398 31.186 120.656 31.186C122.254 31.186 123.597 30.727 124.685 29.809C125.807 28.857 126.368 27.735 126.368 26.443C126.368 25.389 125.977 24.488 125.195 23.74C124.413 22.958 123.444 22.397 122.288 22.057C119.262 21.241 116.678 20.374 114.536 19.456C112.428 18.538 110.864 17.331 109.844 15.835C108.824 14.339 108.45 12.333 108.722 9.817C108.96 7.845 109.606 6.213 110.66 4.921C111.748 3.595 113.108 2.609 114.74 1.963C116.406 1.317 118.242 0.993998 120.248 0.993998C122.05 0.993998 123.937 1.283 125.909 1.861C127.881 2.405 129.836 3.323 131.774 4.615L127.439 9.103C126.453 8.559 125.382 8.1 124.226 7.726C123.07 7.352 121.88 7.148 120.656 7.114C119.704 7.08 118.786 7.182 117.902 7.42C117.052 7.624 116.338 7.998 115.76 8.542C115.182 9.052 114.876 9.749 114.842 10.633C114.808 11.619 115.063 12.384 115.607 12.928C116.151 13.472 116.899 13.914 117.851 14.254C118.837 14.594 119.976 14.968 121.268 15.376C123.648 16.022 125.671 16.77 127.337 17.62C129.003 18.436 130.278 19.541 131.162 20.935C132.046 22.295 132.488 24.131 132.488 26.443C132.488 28.517 131.961 30.387 130.907 32.053C129.853 33.719 128.442 35.045 126.674 36.031C124.906 37.017 122.934 37.51 120.758 37.51ZM213.907 37H207.787V1.3H213.907V37ZM235.925 37.561C233.477 37.561 231.216 37.085 229.142 36.133C227.068 35.147 225.232 33.855 223.634 32.257C222.036 30.625 220.778 28.721 219.86 26.545C218.942 24.335 218.483 21.887 218.483 19.201C218.483 16.583 218.942 14.169 219.86 11.959C220.812 9.715 222.07 7.76 223.634 6.094C225.198 4.462 227.017 3.17 229.091 2.218C231.199 1.266 233.477 0.789998 235.925 0.789998C238.509 0.789998 240.974 1.385 243.32 2.575C245.666 3.731 247.842 5.533 249.848 7.981L244.901 12.061C243.507 10.327 242.062 9.086 240.566 8.338C239.07 7.556 237.523 7.165 235.925 7.165C234.395 7.165 232.967 7.471 231.641 8.083C230.349 8.695 229.176 9.545 228.122 10.633C227.102 11.687 226.303 12.945 225.725 14.407C225.147 15.835 224.858 17.433 224.858 19.201C224.858 20.969 225.147 22.567 225.725 23.995C226.303 25.389 227.102 26.63 228.122 27.718C229.142 28.806 230.315 29.656 231.641 30.268C232.967 30.88 234.395 31.186 235.925 31.186C237.523 31.186 239.07 30.812 240.566 30.064C242.062 29.282 243.507 28.024 244.901 26.29L249.848 30.37C247.842 32.818 245.666 34.637 243.32 35.827C240.974 36.983 238.509 37.561 235.925 37.561Z" fill="black"/>
<path d="M171.49 19.048C171.49 21.598 171.031 23.995 170.113 26.239C169.229 28.449 167.988 30.387 166.39 32.053C164.792 33.719 162.939 35.028 160.831 35.98C158.723 36.932 156.462 37.408 154.048 37.408C151.6 37.408 149.322 36.932 147.214 35.98C145.106 34.994 143.253 33.668 141.655 32.002C140.057 30.302 138.799 28.347 137.881 26.137C136.997 23.893 136.555 21.53 136.555 19.048C136.555 16.566 137.014 14.237 137.932 12.061C138.85 9.851 140.125 7.913 141.757 6.247C143.389 4.547 145.259 3.221 147.367 2.269C149.475 1.317 151.702 0.840997 154.048 0.840997C156.462 0.840997 158.706 1.317 160.78 2.269C162.888 3.221 164.741 4.547 166.339 6.247C167.971 7.913 169.229 9.851 170.113 12.061C171.031 14.237 171.49 16.566 171.49 19.048ZM165.166 19.048C165.166 16.804 164.656 14.764 163.636 12.928C162.65 11.092 161.307 9.63 159.607 8.542C157.941 7.42 156.088 6.859 154.048 6.859C152.008 6.859 150.138 7.42 148.438 8.542C146.738 9.664 145.378 11.16 144.358 13.03C143.372 14.866 142.879 16.872 142.879 19.048C142.879 21.292 143.372 23.349 144.358 25.219C145.378 27.089 146.738 28.585 148.438 29.707C150.138 30.829 152.008 31.39 154.048 31.39C156.122 31.39 157.992 30.829 159.658 29.707C161.324 28.585 162.65 27.089 163.636 25.219C164.656 23.315 165.166 21.258 165.166 19.048ZM202.684 37H194.83L182.182 9.256V36.949H176.062V1.3H184.477L196.564 28.483V1.3H202.684V37Z" fill="#A7CC1B"/>
</svg>
